<svg width="412" height="64" viewBox="0 0 412 64" fill="none" xmlns="http://www.w3.org/2000/svg">
<g clip-path="url(#clip0)">
<path fill-rule="evenodd" clip-rule="evenodd" d="M7 2C4.79086 2 3 3.79086 3 6V33C3 34.506 3.83229 35.8176 5.062 36.5C3.83229 37.1824 3 38.494 3 40V60C3 62.2091 4.79086 64 7 64H51C53.2091 64 55 62.2091 55 60V40C55 38.494 54.1677 37.1824 52.938 36.5C54.1677 35.8176 55 34.506 55 33V6C55 3.79086 53.2091 2 51 2H7Z" fill="black"/>
<path d="M6.5 36C3.3 36 2.5 32.3333 2.5 31L2.5 27" stroke="black"/>
<rect x="2.5" y="0.5" width="51" height="34" rx="3.5" fill="white" stroke="black"/>
<rect x="4.5" y="2.5" width="47" height="30" rx="2.5" stroke="black"/>
<rect x="2.5" y="34.5" width="51" height="27" rx="3.5" fill="white" stroke="black"/>
<path d="M50.5 0.5C53.7 0.5 54.5 4.16667 54.5 5.5V9.5" stroke="black"/>
<path d="M50.5 34.5C53.7 34.5 54.5 38.1667 54.5 39.5V43.5" stroke="black"/>
<path d="M6.5 63.5C3.3 63.5 2.5 59.8333 2.5 58.5L2.5 54.5" stroke="black"/>
<rect x="11" y="54" width="17" height="5" fill="white"/>
<rect x="4.5" y="39.5" width="30" height="20" rx="2.5" stroke="black"/>
<rect x="38.5" y="39.5" width="13" height="20" rx="2.5" fill="white" stroke="black"/>
<line x1="5" y1="44.5" x2="34" y2="44.5" stroke="black"/>
<line x1="5" y1="54.5" x2="34" y2="54.5" stroke="black"/>
<line x1="5" y1="49.5" x2="34" y2="49.5" stroke="black"/>
<line x1="11.5" y1="39" x2="11.5" y2="59" stroke="black"/>
<line x1="19.5" y1="39" x2="19.5" y2="55" stroke="black"/>
<line x1="27.5" y1="39" x2="27.5" y2="59" stroke="black"/>
<path d="M78.1193 29.0909C78.4517 24.7614 75.6222 22.3068 71.0625 22.3068C66.5199 22.3068 62.429 25.2727 61.483 31C60.5199 36.9318 63.6903 40.2386 68.608 40.2386C73.6108 40.2386 76.6449 36.6591 77.3693 33.6932H72.5966C72.1108 35.1591 70.7812 36.1136 68.8807 36.1136C66.7244 36.1136 65.7699 34.6136 66.2557 31.5455C66.7926 28.375 68.5312 26.4318 71.0284 26.4318C72.7585 26.4318 73.5085 27.4886 73.3807 29.0909H78.1193ZM80.6612 22.5455L85.093 34.5114L84.1726 40H88.8771L89.7976 34.5114L98.1839 22.5455H92.8999L88.3317 29.6364H88.1612L85.9453 22.5455H80.6612ZM96.831 40H105.047C108.831 40 111.524 37.9205 112.001 35.0568C112.411 32.6023 110.876 30.9659 108.626 30.8977L108.661 30.7273C110.74 30.3182 112.342 28.8182 112.683 26.9091C113.126 24.25 111.286 22.5455 107.297 22.5455H99.7287L96.831 40ZM102.217 36.2159L102.797 32.5341H105.081C106.547 32.5341 107.297 33.2159 107.092 34.4432C106.922 35.6023 106.001 36.2159 104.433 36.2159H102.217ZM103.308 29.6023L103.854 26.2614H105.865C107.024 26.2614 107.808 26.8409 107.638 27.9318C107.467 28.9886 106.479 29.6023 105.251 29.6023H103.308ZM112.862 40H125.408L126.055 36.1818H118.249L118.726 33.1818H125.919L126.567 29.3636H119.374L119.851 26.3636H127.692L128.339 22.5455H115.76L112.862 40ZM127.792 40H132.531L133.494 34.2386H135.13L137.235 40H142.383L139.92 33.4886C141.923 32.5938 143.32 30.8977 143.712 28.4773C144.326 24.7614 142.11 22.5455 138.224 22.5455H130.69L127.792 40ZM134.107 30.5568L134.815 26.3295H136.485C138.121 26.3295 139.008 26.9773 138.769 28.4773C138.531 29.9773 137.44 30.5568 135.769 30.5568H134.107ZM150.876 40C156.194 40 159.978 36.8636 160.864 31.5114C161.785 25.9545 158.887 22.5455 153.501 22.5455H146.955L144.058 40H150.876ZM149.461 35.9773L151.029 26.5682H152.785C155.512 26.5682 156.773 27.4886 156.194 31.0341C155.58 34.7841 153.773 35.9773 151.183 35.9773H149.461ZM161.659 40H174.205L174.852 36.1818H167.045L167.523 33.1818H174.716L175.364 29.3636H168.17L168.648 26.3636H176.489L177.136 22.5455H164.557L161.659 40ZM194.674 29.0909C195.006 24.7614 192.177 22.3068 187.617 22.3068C183.075 22.3068 178.984 25.2727 178.038 31C177.075 36.9318 180.245 40.2386 185.163 40.2386C190.165 40.2386 193.2 36.6591 193.924 33.6932H189.151C188.665 35.1591 187.336 36.1136 185.435 36.1136C183.279 36.1136 182.325 34.6136 182.81 31.5455C183.347 28.375 185.086 26.4318 187.583 26.4318C189.313 26.4318 190.063 27.4886 189.935 29.0909H194.674ZM195.034 40H199.773L200.523 35.5341L202.466 33.4545L205.261 40H210.92L206.523 30.3182L213.682 22.5455H208.159L201.75 29.6023H201.511L202.67 22.5455H197.932L195.034 40ZM230.233 22.5455L228.358 33.8636C228.153 35.1591 226.926 36.0455 225.153 36.0455C223.415 36.0455 222.528 35.1591 222.733 33.8636L224.608 22.5455H219.869L217.96 34.0682C217.312 38.0568 219.869 40.2045 224.472 40.2045C229.04 40.2045 232.381 38.0568 233.028 34.0682L234.938 22.5455H230.233ZM245.678 28H250.212C250.792 24.5568 248.508 22.3068 244.281 22.3068C240.121 22.3068 236.849 24.5227 236.303 27.8636C235.86 30.5909 237.496 32.0909 240.462 32.7727L242.133 33.1477C244.008 33.5568 244.621 34.0682 244.485 34.8523C244.349 35.7045 243.462 36.3182 241.928 36.3182C240.121 36.3182 239.167 35.4659 239.371 33.8636H234.871C234.156 38.2273 236.815 40.2045 241.349 40.2045C245.781 40.2045 248.746 38.2955 249.326 34.8523C249.769 32.1932 248.474 30.3182 244.758 29.5L243.394 29.1932C241.792 28.8523 241.11 28.3409 241.315 27.5227C241.451 26.7386 242.167 26.1932 243.633 26.1932C245.167 26.1932 245.781 26.875 245.678 28ZM250.276 40H262.822L263.469 36.1818H255.663L256.14 33.1818H263.333L263.981 29.3636H256.788L257.265 26.3636H265.106L265.754 22.5455H253.174L250.276 40ZM265.206 40H269.945L270.908 34.2386H272.544L274.649 40H279.797L277.334 33.4886C279.337 32.5938 280.734 30.8977 281.126 28.4773C281.74 24.7614 279.524 22.5455 275.638 22.5455H268.104L265.206 40ZM271.521 30.5568L272.229 26.3295H273.899C275.536 26.3295 276.422 26.9773 276.183 28.4773C275.945 29.9773 274.854 30.5568 273.183 30.5568H271.521ZM292.858 28H297.392C297.972 24.5568 295.688 22.3068 291.46 22.3068C287.301 22.3068 284.028 24.5227 283.483 27.8636C283.04 30.5909 284.676 32.0909 287.642 32.7727L289.312 33.1477C291.188 33.5568 291.801 34.0682 291.665 34.8523C291.528 35.7045 290.642 36.3182 289.108 36.3182C287.301 36.3182 286.347 35.4659 286.551 33.8636H282.051C281.335 38.2273 283.994 40.2045 288.528 40.2045C292.96 40.2045 295.926 38.2955 296.506 34.8523C296.949 32.1932 295.653 30.3182 291.938 29.5L290.574 29.1932C288.972 28.8523 288.29 28.3409 288.494 27.5227C288.631 26.7386 289.347 26.1932 290.812 26.1932C292.347 26.1932 292.96 26.875 292.858 28ZM306.669 40H311.203L315.805 30.25H315.942L317.271 40H321.805L329.851 22.5455H324.567L320.408 33.3182H320.271L319.214 22.5455H315.055L310.453 33.2841H310.317L309.703 22.5455H304.419L306.669 40ZM328.487 40H341.033L341.68 36.1818H333.874L334.351 33.1818H341.544L342.192 29.3636H334.999L335.476 26.3636H343.317L343.964 22.5455H331.385L328.487 40ZM343.417 40H355.962L356.61 36.1818H348.803L349.281 33.1818H356.474L357.121 29.3636H349.928L350.406 26.3636H358.246L358.894 22.5455H346.315L343.417 40ZM358.347 40H363.085L363.835 35.5341L365.778 33.4545L368.574 40H374.233L369.835 30.3182L376.994 22.5455H371.472L365.062 29.6023H364.824L365.983 22.5455H361.244L358.347 40ZM375.503 40H387.298L387.946 36.1818H380.889L383.139 22.5455H378.401L375.503 40ZM388.232 22.5455L392.663 34.5114L391.743 40H396.447L397.368 34.5114L405.754 22.5455H400.47L395.902 29.6364H395.732L393.516 22.5455H388.232Z" fill="black"/>
</g>
<defs>
<clipPath id="clip0">
<rect width="412" height="64" fill="white"/>
</clipPath>
</defs>
</svg>
